<svg width="66" height="86" viewBox="0 0 66 86" fill="none" xmlns="http://www.w3.org/2000/svg">
<path d="M58.806 18.336C57.7 18.147 56.656 18.168 55.678 18.4C55.638 16.948 55.57 15.493 55.47 14.038V14.022C55.288 11.868 54.402 10.083 52.809 8.665C51.168 7.202 49.259 6.543 47.081 6.693C45.362 6.808 43.866 7.401 42.591 8.472C42.478 7.659 42.363 7.107 42.254 6.82L42.239 6.788C41.39 4.516 39.926 2.778 37.843 1.575L37.827 1.56C35.575 0.237002 33.131 0.146002 30.497 1.287H30.514C27.835 2.35 26.211 4.654 25.639 8.2V8.168C25.54 8.687 25.467 9.258 25.414 9.884C25.178 9.732 24.925 9.593 24.661 9.467L24.628 9.451C22.688 8.572 20.706 8.47 18.678 9.146C18.666 9.152 18.649 9.157 18.631 9.162C16.61 9.896 15.118 11.19 14.157 13.043V13.027C13.238 14.642 12.912 16.904 13.178 19.81H13.162C13.334 21.922 15.252 30.673 18.919 46.065C18.844 46.022 18.769 45.98 18.695 45.937H18.711C16.83 44.827 14.762 43.977 12.504 43.386L12.52 43.402C9.999 42.699 7.311 42.945 4.454 44.14C1.063 45.526 -0.392001 48.124 0.0909993 51.934V51.952C0.451999 55.621 2.884 57.995 7.388 59.071C10.26 59.75 12.163 60.424 13.097 61.092L13.114 61.108C13.957 61.85 14.855 63.063 15.808 64.749C15.813 64.761 15.817 64.771 15.824 64.781C17.138 67.191 19.137 69.068 21.822 70.41H21.806C22.598 70.817 23.41 71.175 24.244 71.485C23.377 72.821 22.987 73.986 23.073 74.981C22.943 78.298 24.904 80.949 28.958 82.936L28.942 82.919C31.704 84.317 34.767 85.227 38.132 85.646H38.149C41.547 86.054 44.959 85.679 48.38 84.524L48.397 84.507C52.431 83.214 54.535 79.962 54.698 74.757C54.71 74.48 54.672 74.225 54.587 73.986C62.357 69.571 64.576 60.729 61.244 47.459C63.42 40.775 64.847 33.884 65.525 26.786V26.771C65.718 24.761 65.156 22.933 63.84 21.286C62.517 19.639 60.839 18.655 58.806 18.336ZM56.834 46.659C56.696 47.079 56.685 47.502 56.8 47.926C60.213 60.965 57.393 68.914 48.333 71.774C47.749 71.946 47.311 72.298 47.018 72.833C46.726 73.371 46.667 73.933 46.841 74.518C47.011 75.101 47.364 75.539 47.901 75.832C48.438 76.125 49 76.184 49.584 76.01C49.783 75.954 49.98 75.895 50.178 75.832C49.846 78.115 48.773 79.618 46.954 80.34L46.971 80.323C44.198 81.261 41.434 81.572 38.679 81.254C35.844 80.903 33.26 80.145 30.933 78.977L30.916 78.96C28.767 77.908 27.627 76.583 27.499 74.982C27.61 74.413 28.059 73.654 28.848 72.705C29.173 72.761 29.499 72.809 29.825 72.85C30.43 72.925 30.975 72.775 31.462 72.401C31.943 72.024 32.221 71.532 32.296 70.925C32.373 70.32 32.222 69.775 31.847 69.29C31.47 68.808 30.978 68.53 30.372 68.455C28.026 68.167 25.845 67.505 23.829 66.467H23.812C21.975 65.549 20.6 64.271 19.69 62.632L19.675 62.602C18.373 60.294 17.121 58.66 15.922 57.694L15.906 57.677C14.738 56.643 12.24 55.676 8.415 54.775C6.124 54.228 4.813 53.1 4.486 51.391V51.375C4.289 49.848 4.844 48.795 6.155 48.215C8.003 47.444 9.74 47.26 11.368 47.67L11.383 47.687C13.231 48.166 14.926 48.855 16.467 49.755H16.483C18.381 50.862 20.059 51.542 21.519 51.792C21.563 51.806 21.605 51.816 21.646 51.824C21.729 51.839 21.816 51.849 21.903 51.855C22.609 51.906 23.93 51.883 25.864 51.792H25.896C27.418 51.736 29.326 52.206 31.622 53.203V53.219C33.868 54.235 35.689 56.176 37.092 59.041C37.36 59.588 37.781 59.962 38.359 60.164C38.932 60.366 39.495 60.334 40.042 60.068C40.592 59.798 40.966 59.376 41.166 58.799C41.367 58.228 41.335 57.666 41.069 57.116C39.131 53.138 36.573 50.481 33.386 49.144V49.161C30.309 47.812 27.737 47.214 25.673 47.364H25.641C24.93 47.397 24.314 47.419 23.797 47.428C19.852 30.929 17.783 21.594 17.59 19.426H17.573C17.412 17.585 17.577 16.147 18.071 15.111V15.095C18.513 14.267 19.185 13.685 20.091 13.347C20.108 13.342 20.123 13.336 20.139 13.331C21.035 13.044 21.912 13.093 22.77 13.475C22.781 13.481 22.792 13.486 22.803 13.492C23.59 13.874 24.134 14.472 24.439 15.287L24.423 15.272C24.903 16.597 25.341 17.934 25.737 19.281C25.747 19.322 25.758 19.364 25.77 19.409C25.844 19.618 26.019 20.201 26.298 21.158C26.306 21.205 26.317 21.254 26.331 21.302C27.681 25.93 28.937 32.105 30.1 39.825C30.189 40.433 30.477 40.919 30.966 41.285C31.462 41.646 32.012 41.78 32.618 41.686C33.218 41.598 33.7 41.308 34.062 40.82C34.422 40.329 34.555 39.783 34.462 39.184C33.278 31.246 31.996 24.889 30.613 20.116C29.799 15.102 29.594 11.375 30.004 8.937V8.905C30.287 7.145 31.035 5.964 32.249 5.36H32.266C33.481 4.834 34.608 4.849 35.65 5.408L35.63 5.394C36.789 6.066 37.609 7.034 38.084 8.297C38.597 9.911 39.29 20.005 40.17 38.576C40.168 38.602 40.168 38.629 40.17 38.656C40.195 39.252 40.43 39.754 40.876 40.163C41.321 40.578 41.846 40.775 42.447 40.757C43.051 40.736 43.566 40.507 43.986 40.067C44.404 39.631 44.606 39.111 44.596 38.511C44.596 38.484 44.596 38.458 44.596 38.431C44.361 23.505 44.222 15.647 44.178 14.855V14.823C44.111 13.873 44.376 13.039 44.979 12.321L44.996 12.305C45.633 11.581 46.425 11.185 47.371 11.118C48.315 11.053 49.144 11.337 49.857 11.968C50.566 12.6 50.962 13.397 51.043 14.357C51.148 15.859 51.225 17.362 51.269 18.864C51.288 19.929 51.3 21.025 51.3 22.152C51.291 22.256 51.291 22.364 51.3 22.473C51.293 27.906 50.913 34.143 50.162 41.188C50.097 41.793 50.258 42.333 50.642 42.809C51.023 43.287 51.515 43.56 52.117 43.627C52.721 43.691 53.262 43.531 53.737 43.146C54.214 42.765 54.488 42.273 54.554 41.67C55.294 34.763 55.684 28.609 55.725 23.211C55.74 23.202 55.756 23.191 55.774 23.178C56.446 22.709 57.216 22.55 58.084 22.697H58.1C59.018 22.848 59.777 23.298 60.377 24.045C60.94 24.747 61.191 25.522 61.131 26.371C60.46 33.342 59.027 40.104 56.834 46.659Z" fill="#00EDB9"/>
</svg>
